<?xml version="1.0" encoding="UTF-8"?>
<svg width="256px" height="76px" viewBox="0 0 256 76" version="1.1" xmlns="http://www.w3.org/2000/svg" xmlns:xlink="http://www.w3.org/1999/xlink">
    <!-- Generator: Sketch 51.1 (57501) - http://www.bohemiancoding.com/sketch -->
    <title>Quimg</title>
    <desc>Created with Sketch.</desc>
    <defs></defs>
    <g id="Components" stroke="none" stroke-width="1" fill="none" fill-rule="evenodd">
        <g transform="translate(-195.000000, -1184.000000)" fill="#000000" id="Quimg">
            <path d="M221.980964,1239.30119 C205.42061,1239.30119 195.558,1228.84977 195.558,1213.31984 C195.558,1197.5691 206.083025,1184.98323 223.379394,1184.98323 C240.675763,1184.98323 250.538373,1195.36105 250.538373,1210.89099 C250.538373,1225.4641 241.632583,1237.46115 226.02905,1239.15399 C239.203731,1240.40522 254.733662,1248.28058 276.446126,1248.28058 C284.468697,1248.28058 295.140924,1246.66135 301.544261,1243.27568 L301.912269,1243.71729 C295.582534,1252.18147 287.927971,1259.32082 273.502063,1259.32082 C252.378412,1259.32082 239.203731,1239.30119 221.980964,1239.30119 Z M224.115409,1238.56518 C228.457902,1238.56518 231.033957,1232.01464 231.033957,1212.95183 C231.033957,1196.17067 227.059472,1185.71925 222.128167,1185.71925 C217.785674,1185.71925 215.136018,1192.41699 215.136018,1211.3326 C215.136018,1228.33456 219.257706,1238.56518 224.115409,1238.56518 Z M277.991759,1203.23642 L277.991759,1202.57401 L296.539354,1201.91159 L297.128167,1202.50041 L297.128167,1231.35222 C297.128167,1234.22268 298.305792,1235.1795 300.955448,1235.1795 L301.323456,1235.76832 C290.136018,1235.76832 281.451032,1239.37479 281.451032,1239.37479 L280.788618,1233.63387 C275.930915,1235.25311 272.545242,1239.37479 266.730718,1239.37479 C260.916194,1239.37479 257.456921,1235.76832 257.456921,1229.07057 L257.456921,1207.21091 C257.456921,1203.82524 256.352897,1203.23642 253.482436,1203.23642 L253.482436,1202.57401 L273.207657,1201.91159 L273.796469,1202.50041 L273.796469,1230.91061 C273.796469,1233.04506 275.047696,1234.22268 276.519727,1234.22268 C277.991759,1234.22268 278.801376,1233.63387 280.788618,1233.04506 L280.788618,1206.03328 C280.788618,1203.82524 279.537392,1203.23642 277.991759,1203.23642 Z M327.010404,1237.24035 L327.010404,1237.90276 C327.010404,1237.90276 323.477529,1237.68196 316.04377,1237.68196 C308.683613,1237.68196 303.605105,1237.90276 303.605105,1237.90276 L303.605105,1237.24035 C306.475566,1237.24035 307.800395,1235.25311 307.800395,1232.08824 L307.800395,1209.19815 C307.800395,1206.32769 306.549168,1205.29727 303.899511,1205.29727 L303.605105,1204.70845 C314.792544,1204.70845 324.139943,1201.10198 324.139943,1201.10198 L324.139943,1234.44349 C324.139943,1236.65154 325.39117,1237.24035 327.010404,1237.24035 Z M315.822966,1198.67313 C310.155645,1198.67313 307.432387,1195.65546 307.432387,1191.60737 C307.432387,1187.48569 310.155645,1184.32082 315.822966,1184.32082 C321.490287,1184.32082 324.287146,1187.48569 324.287146,1191.60737 C324.287146,1195.65546 321.490287,1198.67313 315.822966,1198.67313 Z M381.401965,1233.78107 L381.401965,1209.56616 C381.401965,1207.43171 380.518746,1206.32769 378.678707,1206.32769 C377.501081,1206.32769 375.219433,1207.65252 374.189011,1207.87332 C374.336214,1208.46213 374.409816,1209.27175 374.409816,1210.22857 L374.409816,1234.44349 C374.409816,1236.65154 375.661042,1237.24035 377.206675,1237.24035 L377.206675,1237.90276 C377.206675,1237.90276 373.600198,1237.68196 366.313643,1237.68196 C359.100689,1237.68196 355.347009,1237.90276 355.347009,1237.90276 L355.347009,1237.24035 C357.334251,1237.24035 358.070267,1236.28353 358.070267,1233.78107 L358.070267,1209.56616 C358.070267,1207.43171 356.892642,1206.32769 355.42061,1206.32769 C354.022181,1206.32769 353.06536,1206.8429 351.151719,1207.43171 L351.151719,1234.44349 C351.151719,1236.65154 352.402946,1237.24035 354.022181,1237.24035 L354.022181,1237.90276 C354.022181,1237.90276 350.489305,1237.68196 343.055547,1237.68196 C335.69539,1237.68196 330.616881,1237.90276 330.616881,1237.90276 L330.616881,1237.24035 C333.487342,1237.24035 334.812171,1235.25311 334.812171,1232.08824 L334.812171,1209.19815 C334.812171,1206.32769 333.560944,1205.29727 330.911288,1205.29727 L330.616881,1204.70845 C341.80432,1204.70845 351.151719,1201.10198 351.151719,1201.10198 L351.151719,1206.8429 C355.494212,1205.22367 359.395095,1201.10198 365.136018,1201.10198 C369.846518,1201.10198 372.937784,1203.67803 374.041808,1207.28451 C379.046714,1205.66527 381.843574,1201.10198 388.467715,1201.10198 C394.282239,1201.10198 397.741513,1204.70845 397.741513,1211.4798 L397.741513,1233.33947 C397.741513,1236.65154 398.919138,1237.24035 401.7896,1237.24035 L401.7896,1237.90276 C401.7896,1237.90276 396.858294,1237.68196 389.571739,1237.68196 C382.800395,1237.68196 378.605105,1237.90276 378.605105,1237.90276 L378.605105,1237.24035 C380.665949,1237.24035 381.401965,1236.28353 381.401965,1233.78107 Z M423.796469,1201.10198 C426.961337,1201.10198 429.979001,1201.69079 432.481454,1202.72121 C433.732681,1202.94202 435.940728,1203.01562 437.044752,1203.01562 C441.755252,1203.01562 444.036901,1201.69079 445.803339,1199.99795 C448.821003,1200.58677 450.145831,1202.72121 450.145831,1204.63485 C450.145831,1207.50531 448.23219,1209.12455 445.508932,1209.12455 C441.460846,1209.12455 440.356822,1205.37087 435.204712,1203.75163 L435.057509,1203.97244 C438.811189,1206.18049 441.313643,1209.12455 441.313643,1213.76145 C441.313643,1220.7536 434.247892,1227.45134 421.882828,1227.45134 C417.466734,1227.45134 415.700296,1228.40816 415.700296,1229.58578 C415.700296,1230.76341 416.657117,1231.05782 421.073211,1231.05782 L426.66693,1231.05782 C439.105596,1231.05782 446.024143,1235.25311 446.024143,1242.46606 C446.024143,1253.43269 432.334251,1257.77519 421.073211,1257.77519 C409.738569,1257.77519 402.820022,1254.90473 402.820022,1249.31101 C402.820022,1245.41012 406.132092,1243.57008 408.708147,1243.57008 C411.063397,1243.57008 412.461827,1244.2325 413.345046,1245.11572 C411.725812,1246.29334 411.357804,1248.05978 411.357804,1249.31101 C411.357804,1254.68392 416.583515,1257.03917 423.796469,1257.03917 C431.009423,1257.03917 434.689501,1253.6535 434.689501,1249.53181 C434.689501,1245.85173 431.009423,1243.64368 425.415704,1243.64368 L421.073211,1243.64368 C413.492249,1243.64368 405.322475,1241.50924 405.322475,1235.62111 C405.322475,1230.3218 410.548186,1227.74575 418.349953,1227.23053 C410.474585,1226.27371 404.439256,1221.63682 404.439256,1214.93907 C404.439256,1207.94692 411.505007,1201.10198 423.796469,1201.10198 Z M423.207657,1226.93613 C424.974094,1226.93613 425.71011,1223.84486 425.71011,1214.64467 C425.71011,1206.6221 424.385282,1201.69079 422.471641,1201.69079 C420.778805,1201.69079 419.969187,1204.70845 419.969187,1213.90865 C419.969187,1222.07842 421.220414,1226.93613 423.207657,1226.93613 Z"></path>
        </g>
    </g>
</svg>